<svg xmlns="http://www.w3.org/2000/svg" width="21.729" height="20.083" viewBox="0 0 21.729 20.083">
  <path id="Path_310" data-name="Path 310" d="M366.82,850.909a6.52,6.52,0,0,1,.256,8.948l-9.213,9.226-9.211-9.226a6.519,6.519,0,0,1,9.213-9.2A6.517,6.517,0,0,1,366.82,850.909Zm-16.374,1.537a4.345,4.345,0,0,0-.209,5.922l7.627,7.639,7.627-7.638a4.346,4.346,0,0,0-6.134-6.128l-4.565,4.566-1.537-1.536,3.069-3.071-.089-.075A4.346,4.346,0,0,0,350.446,852.446Z" transform="translate(-347 -849)" fill="#bcbcbc"/>
</svg>
