<svg xmlns="http://www.w3.org/2000/svg" width="22.706" height="23.079" viewBox="0 0 22.706 23.079">
  <path id="Path_308" data-name="Path 308" d="M149.28,852.817l-3.523-3.522,1.537-1.537,3.522,3.523h16.559a1.086,1.086,0,0,1,1.041,1.4l-2.607,8.692a1.087,1.087,0,0,1-1.041.775H151.453v2.173H163.4v2.173H150.367a1.087,1.087,0,0,1-1.086-1.086Zm2.173.637v6.519H163.96l1.956-6.519Zm-.543,17.383a1.629,1.629,0,1,1,1.153-.477A1.633,1.633,0,0,1,150.91,870.836Zm13.037,0a1.629,1.629,0,1,1,1.153-.477A1.633,1.633,0,0,1,163.947,870.836Z" transform="translate(-145.757 -847.757)" fill="#bcbcbc"/>
</svg>
